<?xml version="1.0" encoding="utf-8"?>
<!-- Generator: Adobe Illustrator 15.0.2, SVG Export Plug-In . SVG Version: 6.00 Build 0)  -->
<!DOCTYPE svg PUBLIC "-//W3C//DTD SVG 1.1//EN" "http://www.w3.org/Graphics/SVG/1.1/DTD/svg11.dtd">
<svg version="1.1" id="Calque_1" xmlns="http://www.w3.org/2000/svg" xmlns:xlink="http://www.w3.org/1999/xlink" x="0px" y="0px"
	 width="36px" height="180px" viewBox="0 0 36 180" enable-background="new 0 0 36 180" xml:space="preserve">
<g>
	<g id="place_7_">
		<path fill="#F44336" d="M18,1C12.15,1,7.5,5.648,7.5,11.499C7.5,19.302,18,31,18,31s10.5-11.699,10.5-19.501
			C28.5,5.648,23.854,1,18,1z M18,15.245c-2.099,0-3.749-1.647-3.749-3.747c0-2.102,1.65-3.749,3.749-3.749
			c2.098,0,3.751,1.647,3.751,3.749S20.096,15.245,18,15.245z"/>
	</g>
	<g id="place_1_">
		<path fill="#F44336" d="M18,38c-5.85,0-10.5,4.648-10.5,10.499C7.5,56.302,18,68,18,68s10.5-11.699,10.5-19.501
			C28.5,42.648,23.854,38,18,38z M18,52.245c-2.099,0-3.749-1.647-3.749-3.747c0-2.102,1.65-3.749,3.749-3.749
			c2.098,0,3.751,1.647,3.751,3.749S20.096,52.245,18,52.245z"/>
	</g>
	<g id="place_2_">
		<path fill="#F44336" d="M18,75c-5.85,0-10.5,4.648-10.5,10.499C7.5,93.302,18,105,18,105s10.5-11.699,10.5-19.501
			C28.5,79.648,23.854,75,18,75z M18,89.245c-2.099,0-3.749-1.647-3.749-3.747c0-2.102,1.65-3.749,3.749-3.749
			c2.098,0,3.751,1.647,3.751,3.749S20.096,89.245,18,89.245z"/>
	</g>
	<g id="place_3_">
		<path fill="#F44336" d="M18,112c-5.85,0-10.5,4.648-10.5,10.498C7.5,130.301,18,142,18,142s10.5-11.699,10.5-19.502
			C28.5,116.648,23.854,112,18,112z M18,126.245c-2.099,0-3.749-1.647-3.749-3.747c0-2.102,1.65-3.748,3.749-3.748
			c2.098,0,3.751,1.646,3.751,3.748S20.096,126.245,18,126.245z"/>
	</g>
	<g id="place_4_">
		<path fill="#F44336" d="M18,149c-5.85,0-10.5,4.648-10.5,10.498C7.5,167.301,18,179,18,179s10.5-11.699,10.5-19.502
			C28.5,153.648,23.854,149,18,149z M18,163.244c-2.099,0-3.749-1.646-3.749-3.746c0-2.102,1.65-3.748,3.749-3.748
			c2.098,0,3.751,1.646,3.751,3.748S20.096,163.244,18,163.244z"/>
	</g>
	<rect fill="#607D8B" fill-opacity="0" width="36" height="180"/>
</g>
</svg>
