<?xml version="1.0" encoding="utf-8"?>
<!-- Generator: Adobe Illustrator 15.0.2, SVG Export Plug-In . SVG Version: 6.00 Build 0)  -->
<!DOCTYPE svg PUBLIC "-//W3C//DTD SVG 1.1//EN" "http://www.w3.org/Graphics/SVG/1.1/DTD/svg11.dtd">
<svg version="1.1" id="Calque_2" xmlns="http://www.w3.org/2000/svg" xmlns:xlink="http://www.w3.org/1999/xlink" x="0px" y="0px"
	 width="96px" height="24px" viewBox="0 0 96 24" enable-background="new 0 0 96 24" xml:space="preserve">
<g id="Normal">
	<linearGradient id="SVGID_1_" gradientUnits="userSpaceOnUse" x1="11.8271" y1="21.6958" x2="11.9522" y2="1.8212">
		<stop  offset="0" style="stop-color:#FFFF00"/>
		<stop  offset="0.0141" style="stop-color:#FFFD00"/>
		<stop  offset="0.2657" style="stop-color:#FDE000"/>
		<stop  offset="0.5159" style="stop-color:#FBCC00"/>
		<stop  offset="0.7622" style="stop-color:#FABF00"/>
		<stop  offset="1" style="stop-color:#FABB00"/>
	</linearGradient>
	<path fill="url(#SVGID_1_)" d="M5.264,8.703h-2.65c-1.979,0-2.285,1-0.681,2.224l2.131,1.624l2.918,2.224l-1.119,3.611
		l-0.806,2.602c-0.615,1.985,0.195,2.61,1.8,1.387l2.13-1.623l2.918-2.224l2.918,2.224l2.13,1.623
		c1.604,1.224,2.414,0.599,1.799-1.387l-0.806-2.602l-1.118-3.611l2.917-2.224l2.131-1.624c1.604-1.224,1.299-2.224-0.68-2.224
		h-2.651h-3.597L13.828,5.09l-0.806-2.6c-0.615-1.987-1.621-1.987-2.237,0L9.98,5.09L8.86,8.703H5.264z"/>
	<linearGradient id="SVGID_2_" gradientUnits="userSpaceOnUse" x1="11.9043" y1="1.0005" x2="11.9043" y2="23">
		<stop  offset="0" style="stop-color:#FFFFFF;stop-opacity:0"/>
		<stop  offset="0.0907" style="stop-color:#F9F6F6;stop-opacity:0.0227"/>
		<stop  offset="0.2387" style="stop-color:#E8DEDE;stop-opacity:0.0597"/>
		<stop  offset="0.4257" style="stop-color:#CCB6B6;stop-opacity:0.1064"/>
		<stop  offset="0.6443" style="stop-color:#A67F7F;stop-opacity:0.1611"/>
		<stop  offset="0.8866" style="stop-color:#763939;stop-opacity:0.2216"/>
		<stop  offset="1" style="stop-color:#5E1616;stop-opacity:0.25"/>
	</linearGradient>
	<path fill="url(#SVGID_2_)" d="M5.264,8.703h-2.65c-1.979,0-2.285,1-0.681,2.224l2.131,1.624l2.918,2.224l-1.119,3.611
		l-0.806,2.602c-0.615,1.985,0.195,2.61,1.8,1.387l2.13-1.623l2.918-2.224l2.918,2.224l2.13,1.623
		c1.604,1.224,2.414,0.599,1.799-1.387l-0.806-2.602l-1.118-3.611l2.917-2.224l2.131-1.624c1.604-1.224,1.299-2.224-0.68-2.224
		h-2.651h-3.597L13.828,5.09l-0.806-2.6c-0.615-1.987-1.621-1.987-2.237,0L9.98,5.09L8.86,8.703H5.264z"/>
	<linearGradient id="SVGID_3_" gradientUnits="userSpaceOnUse" x1="8.9658" y1="2.1982" x2="13.2158" y2="12.8232">
		<stop  offset="0" style="stop-color:#FFF9BF"/>
		<stop  offset="1" style="stop-color:#F9DC65"/>
	</linearGradient>
	<path fill="url(#SVGID_3_)" d="M6.981,14.774L6.1,17.621c1.086-1.298,2.441-2.513,4.044-3.538c3.672-2.35,7.708-3.157,10.815-2.458
		l0.916-0.698c1.604-1.224,1.299-2.224-0.68-2.224h-2.651h-3.597L13.828,5.09l-0.806-2.6c-0.615-1.987-1.621-1.987-2.237,0
		L9.98,5.09L8.86,8.703H5.264h-2.65c-1.979,0-2.285,1-0.681,2.224l2.131,1.624L6.981,14.774z"/>
	<g>
		<path fill="#FF7F00" d="M11.903,1.5c0.091,0,0.416,0.219,0.718,1.191l0.799,2.578l1.012,3.265
			c-0.039,0.186,0.031,0.381,0.185,0.499l0.086,0.066c0.09,0.068,0.197,0.103,0.305,0.103c0.086,0,0.171-0.022,0.248-0.066h3.234
			h2.628c0.803,0,1.226,0.187,1.279,0.361c0.04,0.131-0.087,0.534-0.854,1.119l-2.112,1.61l-2.625,2
			c-0.192,0.026-0.355,0.162-0.412,0.351l-0.032,0.107c-0.055,0.182-0.002,0.376,0.132,0.505l1.012,3.26l0.799,2.578
			c0.274,0.888,0.194,1.35,0.072,1.444c-0.01,0.007-0.038,0.029-0.118,0.029c-0.118,0-0.462-0.052-1.097-0.536l-2.113-1.609
			l-2.632-2.006c-0.079-0.182-0.259-0.301-0.459-0.301h-0.105c-0.2,0-0.38,0.12-0.459,0.301L8.76,20.354l-2.112,1.609
			C6.012,22.448,5.668,22.5,5.55,22.5c-0.08,0-0.108-0.022-0.119-0.03c-0.121-0.093-0.201-0.555,0.073-1.443l0.8-2.578l1.011-3.26
			c0.134-0.129,0.187-0.323,0.132-0.505l-0.032-0.107c-0.057-0.19-0.22-0.326-0.412-0.352l-2.625-2l-2.112-1.61
			c-0.667-0.508-0.91-0.936-0.854-1.119c0.054-0.174,0.477-0.361,1.279-0.361h2.628h3.234C8.629,9.18,8.714,9.202,8.8,9.202
			c0.107,0,0.215-0.035,0.305-0.103L9.19,9.032C9.344,8.915,9.414,8.72,9.375,8.534l1.012-3.265l0.799-2.578
			C11.487,1.719,11.813,1.5,11.903,1.5 M11.903,1c-0.463,0-0.887,0.548-1.195,1.543L9.909,5.121L8.82,8.636h0.065L8.8,8.702
			L8.82,8.636H5.317H2.689c-0.992,0-1.615,0.253-1.757,0.714C0.792,9.81,1.157,10.4,1.962,11.013l2.112,1.61l2.841,2.164
			l0.021-0.066l0.032,0.107l-0.053-0.041l-1.089,3.514l-0.8,2.578c-0.308,0.995-0.272,1.701,0.1,1.987
			C5.242,22.956,5.385,23,5.55,23c0.366,0,0.847-0.216,1.4-0.638l2.112-1.61l2.841-2.165l-0.053-0.04h0.105l-0.053,0.04l2.841,2.165
			l2.113,1.61C17.411,22.784,17.891,23,18.257,23c0.165,0,0.308-0.044,0.424-0.134c0.372-0.287,0.407-0.993,0.1-1.987l-0.799-2.578
			l-1.09-3.514l-0.053,0.041l0.032-0.107l0.021,0.066l2.841-2.164l2.112-1.61c0.805-0.613,1.171-1.203,1.029-1.664
			c-0.141-0.46-0.765-0.714-1.757-0.714h-2.628h-3.503l0.021,0.066l-0.086-0.066h0.065l-1.089-3.515l-0.799-2.578
			C12.79,1.548,12.366,1,11.903,1L11.903,1z"/>
	</g>
</g>
<g id="Vide">
	<g>
		<path fill="#9C9E9F" d="M35.903,1.5c0.091,0,0.416,0.219,0.718,1.191l0.799,2.578l1.012,3.265
			c-0.039,0.186,0.031,0.381,0.185,0.499l0.086,0.066c0.09,0.068,0.197,0.103,0.305,0.103c0.086,0,0.171-0.022,0.248-0.066h3.234
			h2.628c0.803,0,1.226,0.187,1.279,0.361c0.04,0.131-0.087,0.534-0.854,1.119l-2.112,1.61l-2.625,2
			c-0.192,0.026-0.355,0.162-0.412,0.351l-0.032,0.107c-0.055,0.182-0.002,0.376,0.132,0.505l1.012,3.26l0.799,2.578
			c0.274,0.888,0.194,1.35,0.072,1.444c-0.01,0.007-0.038,0.029-0.118,0.029c-0.118,0-0.462-0.052-1.097-0.536l-2.113-1.609
			l-2.632-2.006c-0.079-0.182-0.259-0.301-0.459-0.301h-0.105c-0.2,0-0.38,0.12-0.459,0.301l-2.632,2.006l-2.112,1.609
			c-0.636,0.484-0.979,0.536-1.098,0.536c-0.08,0-0.108-0.022-0.119-0.03c-0.121-0.093-0.201-0.555,0.073-1.443l0.8-2.578
			l1.011-3.26c0.134-0.129,0.187-0.323,0.132-0.505l-0.032-0.107c-0.057-0.19-0.22-0.326-0.412-0.352l-2.625-2l-2.112-1.61
			c-0.667-0.508-0.91-0.936-0.854-1.119c0.054-0.174,0.477-0.361,1.279-0.361h2.628h3.234c0.077,0.044,0.162,0.066,0.248,0.066
			c0.107,0,0.215-0.035,0.305-0.103l0.086-0.066c0.153-0.118,0.224-0.313,0.185-0.499l1.012-3.265l0.799-2.578
			C35.487,1.719,35.813,1.5,35.903,1.5 M35.903,1c-0.463,0-0.887,0.548-1.195,1.543l-0.799,2.578L32.82,8.636h0.065L32.8,8.702
			l0.021-0.066h-3.503h-2.628c-0.992,0-1.615,0.253-1.757,0.714c-0.141,0.46,0.225,1.051,1.029,1.664l2.112,1.61l2.841,2.164
			l0.021-0.066l0.032,0.107l-0.053-0.041l-1.089,3.514l-0.8,2.578c-0.308,0.995-0.272,1.701,0.1,1.987
			C29.242,22.956,29.385,23,29.55,23c0.366,0,0.847-0.216,1.4-0.638l2.112-1.61l2.841-2.165l-0.053-0.04h0.105l-0.053,0.04
			l2.841,2.165l2.113,1.61C41.411,22.784,41.891,23,42.257,23c0.165,0,0.308-0.044,0.424-0.134c0.372-0.287,0.407-0.993,0.1-1.987
			l-0.799-2.578l-1.09-3.514l-0.053,0.041l0.032-0.107l0.021,0.066l2.841-2.164l2.112-1.61c0.805-0.613,1.171-1.203,1.029-1.664
			c-0.141-0.46-0.765-0.714-1.757-0.714h-2.628h-3.503l0.021,0.066l-0.086-0.066h0.065l-1.089-3.515l-0.799-2.578
			C36.79,1.548,36.366,1,35.903,1L35.903,1z"/>
	</g>
</g>
<g id="clic">
	<linearGradient id="SVGID_4_" gradientUnits="userSpaceOnUse" x1="59.8271" y1="21.6953" x2="59.9522" y2="1.8207">
		<stop  offset="0" style="stop-color:#FFFF00"/>
		<stop  offset="0.0141" style="stop-color:#FFFD00"/>
		<stop  offset="0.2657" style="stop-color:#FDE000"/>
		<stop  offset="0.5159" style="stop-color:#FBCC00"/>
		<stop  offset="0.7622" style="stop-color:#FABF00"/>
		<stop  offset="1" style="stop-color:#FABB00"/>
	</linearGradient>
	<path fill="url(#SVGID_4_)" d="M53.264,8.703h-2.65c-1.979,0-2.285,1-0.681,2.224l2.131,1.624l2.918,2.224l-1.119,3.611
		l-0.806,2.602c-0.615,1.985,0.195,2.61,1.8,1.387l2.13-1.623l2.918-2.224l2.918,2.224l2.13,1.623
		c1.604,1.224,2.414,0.599,1.799-1.387l-0.806-2.602l-1.118-3.611l2.917-2.224l2.131-1.624c1.604-1.224,1.299-2.224-0.68-2.224
		h-2.651h-3.597L61.828,5.09l-0.806-2.6c-0.615-1.987-1.621-1.987-2.237,0l-0.805,2.6l-1.12,3.612H53.264z"/>
	<linearGradient id="SVGID_5_" gradientUnits="userSpaceOnUse" x1="59.9043" y1="1.0005" x2="59.9043" y2="23">
		<stop  offset="0" style="stop-color:#FFFFFF;stop-opacity:0"/>
		<stop  offset="0.0907" style="stop-color:#F9F6F6;stop-opacity:0.0227"/>
		<stop  offset="0.2387" style="stop-color:#E8DEDE;stop-opacity:0.0597"/>
		<stop  offset="0.4257" style="stop-color:#CCB6B6;stop-opacity:0.1064"/>
		<stop  offset="0.6443" style="stop-color:#A67F7F;stop-opacity:0.1611"/>
		<stop  offset="0.8866" style="stop-color:#763939;stop-opacity:0.2216"/>
		<stop  offset="1" style="stop-color:#5E1616;stop-opacity:0.25"/>
	</linearGradient>
	<path fill="url(#SVGID_5_)" d="M53.264,8.703h-2.65c-1.979,0-2.285,1-0.681,2.224l2.131,1.624l2.918,2.224l-1.119,3.611
		l-0.806,2.602c-0.615,1.985,0.195,2.61,1.8,1.387l2.13-1.623l2.918-2.224l2.918,2.224l2.13,1.623
		c1.604,1.224,2.414,0.599,1.799-1.387l-0.806-2.602l-1.118-3.611l2.917-2.224l2.131-1.624c1.604-1.224,1.299-2.224-0.68-2.224
		h-2.651h-3.597L61.828,5.09l-0.806-2.6c-0.615-1.987-1.621-1.987-2.237,0l-0.805,2.6l-1.12,3.612H53.264z"/>
	<linearGradient id="SVGID_6_" gradientUnits="userSpaceOnUse" x1="56.9658" y1="2.1987" x2="61.2158" y2="12.8237">
		<stop  offset="0" style="stop-color:#FFF9BF"/>
		<stop  offset="1" style="stop-color:#F9DC65"/>
	</linearGradient>
	<path fill="url(#SVGID_6_)" d="M54.981,14.774L54.1,17.621c1.086-1.298,2.441-2.513,4.044-3.538
		c3.672-2.35,7.708-3.157,10.815-2.458l0.916-0.698c1.604-1.224,1.299-2.224-0.68-2.224h-2.651h-3.597L61.828,5.09l-0.806-2.6
		c-0.615-1.987-1.621-1.987-2.237,0l-0.805,2.6l-1.12,3.612h-3.597h-2.65c-1.979,0-2.285,1-0.681,2.224l2.131,1.624L54.981,14.774z"
		/>
	<g>
		<g>
			<path fill="#0A50A1" d="M59.903,1.5c0.091,0,0.416,0.219,0.718,1.191l0.799,2.578l1.012,3.265
				c-0.039,0.186,0.031,0.381,0.185,0.499l0.086,0.066c0.09,0.068,0.197,0.103,0.305,0.103c0.086,0,0.171-0.022,0.248-0.066h3.234
				h2.628c0.803,0,1.226,0.187,1.279,0.361c0.04,0.131-0.087,0.534-0.854,1.119l-2.112,1.61l-2.625,2
				c-0.192,0.026-0.355,0.162-0.412,0.351l-0.032,0.107c-0.055,0.182-0.002,0.376,0.132,0.505l1.012,3.26l0.799,2.578
				c0.274,0.888,0.194,1.35,0.072,1.444c-0.01,0.007-0.038,0.029-0.118,0.029c-0.118,0-0.462-0.052-1.097-0.536l-2.113-1.609
				l-2.632-2.006c-0.079-0.182-0.259-0.301-0.459-0.301h-0.105c-0.2,0-0.38,0.12-0.459,0.301l-2.632,2.006l-2.112,1.609
				c-0.636,0.484-0.979,0.536-1.098,0.536c-0.08,0-0.108-0.022-0.119-0.03c-0.121-0.093-0.201-0.555,0.073-1.443l0.8-2.578
				l1.011-3.26c0.134-0.129,0.187-0.323,0.132-0.505l-0.032-0.107c-0.057-0.19-0.22-0.326-0.412-0.352l-2.625-2l-2.112-1.61
				c-0.667-0.508-0.91-0.936-0.854-1.119c0.054-0.174,0.477-0.361,1.279-0.361h2.628h3.234c0.077,0.044,0.162,0.066,0.248,0.066
				c0.107,0,0.215-0.035,0.305-0.103l0.086-0.066c0.153-0.118,0.224-0.313,0.185-0.499l1.012-3.265l0.799-2.578
				C59.487,1.719,59.813,1.5,59.903,1.5 M59.903,1c-0.463,0-0.887,0.548-1.195,1.543l-0.799,2.578L56.82,8.636h0.065L56.8,8.702
				l0.021-0.066h-3.503h-2.628c-0.992,0-1.615,0.253-1.757,0.714c-0.141,0.46,0.225,1.051,1.029,1.664l2.112,1.61l2.841,2.164
				l0.021-0.066l0.032,0.107l-0.053-0.041l-1.089,3.514l-0.8,2.578c-0.308,0.995-0.272,1.701,0.1,1.987
				C53.242,22.956,53.385,23,53.55,23c0.366,0,0.847-0.216,1.4-0.638l2.112-1.61l2.841-2.165l-0.053-0.04h0.105l-0.053,0.04
				l2.841,2.165l2.113,1.61C65.411,22.784,65.891,23,66.257,23c0.165,0,0.308-0.044,0.424-0.134c0.372-0.287,0.407-0.993,0.1-1.987
				l-0.799-2.578l-1.09-3.514l-0.053,0.041l0.032-0.107l0.021,0.066l2.841-2.164l2.112-1.61c0.805-0.613,1.171-1.203,1.029-1.664
				c-0.141-0.46-0.765-0.714-1.757-0.714h-2.628h-3.503l0.021,0.066l-0.086-0.066h0.065l-1.089-3.515l-0.799-2.578
				C60.79,1.548,60.366,1,59.903,1L59.903,1z"/>
		</g>
	</g>
</g>
<g id="Grisé">
	<linearGradient id="SVGID_7_" gradientUnits="userSpaceOnUse" x1="83.8281" y1="21.6953" x2="83.9531" y2="1.8207">
		<stop  offset="0" style="stop-color:#FFFFFF"/>
		<stop  offset="0.0738" style="stop-color:#EEEFEF"/>
		<stop  offset="0.2626" style="stop-color:#C9CACB"/>
		<stop  offset="0.4516" style="stop-color:#ACADAE"/>
		<stop  offset="0.6385" style="stop-color:#98989A"/>
		<stop  offset="0.8225" style="stop-color:#8B8C8E"/>
		<stop  offset="1" style="stop-color:#87888A"/>
	</linearGradient>
	<path fill="url(#SVGID_7_)" d="M77.264,8.703h-2.65c-1.979,0-2.285,1-0.681,2.224l2.131,1.624l2.918,2.224l-1.119,3.611
		l-0.806,2.602c-0.615,1.985,0.195,2.61,1.8,1.387l2.13-1.623l2.918-2.224l2.918,2.224l2.13,1.623
		c1.604,1.224,2.414,0.599,1.799-1.387l-0.806-2.602l-1.118-3.611l2.917-2.224l2.131-1.624c1.604-1.224,1.299-2.224-0.68-2.224
		h-2.651h-3.597L85.828,5.09l-0.806-2.6c-0.615-1.987-1.621-1.987-2.237,0l-0.805,2.6l-1.12,3.612H77.264z"/>
	<linearGradient id="SVGID_8_" gradientUnits="userSpaceOnUse" x1="83.9043" y1="1.0005" x2="83.9043" y2="23">
		<stop  offset="0" style="stop-color:#FFFFFF;stop-opacity:0"/>
		<stop  offset="0.0849" style="stop-color:#F6F6F6;stop-opacity:0.0212"/>
		<stop  offset="0.2235" style="stop-color:#DEDEDE;stop-opacity:0.0559"/>
		<stop  offset="0.3985" style="stop-color:#B6B6B6;stop-opacity:0.0996"/>
		<stop  offset="0.6031" style="stop-color:#7F7F7F;stop-opacity:0.1508"/>
		<stop  offset="0.8298" style="stop-color:#393939;stop-opacity:0.2075"/>
		<stop  offset="1" style="stop-color:#000000;stop-opacity:0.25"/>
	</linearGradient>
	<path fill="url(#SVGID_8_)" d="M77.264,8.703h-2.65c-1.979,0-2.285,1-0.681,2.224l2.131,1.624l2.918,2.224l-1.119,3.611
		l-0.806,2.602c-0.615,1.985,0.195,2.61,1.8,1.387l2.13-1.623l2.918-2.224l2.918,2.224l2.13,1.623
		c1.604,1.224,2.414,0.599,1.799-1.387l-0.806-2.602l-1.118-3.611l2.917-2.224l2.131-1.624c1.604-1.224,1.299-2.224-0.68-2.224
		h-2.651h-3.597L85.828,5.09l-0.806-2.6c-0.615-1.987-1.621-1.987-2.237,0l-0.805,2.6l-1.12,3.612H77.264z"/>
	<linearGradient id="SVGID_9_" gradientUnits="userSpaceOnUse" x1="80.9658" y1="2.1987" x2="85.2158" y2="12.8237">
		<stop  offset="0" style="stop-color:#E3E4E4"/>
		<stop  offset="1" style="stop-color:#BBBCBD"/>
	</linearGradient>
	<path fill="url(#SVGID_9_)" d="M78.981,14.774L78.1,17.621c1.086-1.298,2.441-2.513,4.044-3.538
		c3.672-2.35,7.708-3.157,10.815-2.458l0.916-0.698c1.604-1.224,1.299-2.224-0.68-2.224h-2.651h-3.597L85.828,5.09l-0.806-2.6
		c-0.615-1.987-1.621-1.987-2.237,0l-0.805,2.6l-1.12,3.612h-3.597h-2.65c-1.979,0-2.285,1-0.681,2.224l2.131,1.624L78.981,14.774z"
		/>
</g>
</svg>
